<svg version="1.2" xmlns="http://www.w3.org/2000/svg" viewBox="0 0 1080 1080" width="1080" height="1080">
	<title>New Project</title>
	<style>
		.s0 { fill: #000000 } 
		.s1 { fill: none;stroke: #000000;stroke-width: 60 } 
	</style>
	<path id="K" class="s0" aria-label="K"  d="m720.6 413.4c7.2-7.2 11.4-16.8 11.4-27 0-21-17.4-38.4-38.4-38.4-10.2 0-19.8 4.2-27 11.4l-241.8 241.8v-214.8c0-21-17.4-38.4-38.4-38.4-21 0-38.4 17.4-38.4 38.4v307.2c0 21 17.4 38.4 38.4 38.4 9.6 0 19.8-3.6 27-11.4l126.6-126.6 126.6 126.6c7.2 7.8 17.4 11.4 27 11.4 21 0 38.4-17.4 38.4-38.4 0-9.6-3.6-19.8-11.4-27l-126.6-126.6z"/>
	<circle id="Shape 1" class="s1" cx="540.5" cy="540.5" r="393.5"/>
</svg>